<svg id="Layer_2" data-name="Layer 2" xmlns="http://www.w3.org/2000/svg" viewBox="0 0 171.22 170.99"><defs><style>.cls-1{fill:#be1e2d;}.cls-2{fill:none;stroke:#be1e2d;stroke-miterlimit:10;stroke-width:10px;}.cls-3{fill:#be202f;}</style></defs><path class="cls-1" d="M260.78,240.76c2.4-.78,4.83-1.48,7.27-2.11s4.69.28,5.06,2.07a3.09,3.09,0,0,1-1.25,3.17,3.48,3.48,0,0,1,3.11,2.6c.41,2-1.09,3.71-3.56,4.34-2.25.57-4.5,1.22-6.73,1.94Zm7.69,3c.91-.24,1.46-.89,1.29-1.55s-.95-1-1.89-.71-1.95.53-2.92.81l.66,2.24C266.56,244.23,267.51,244,268.47,243.71Zm1.75,4.67c.93-.24,1.48-.92,1.31-1.63s-1-1.07-1.95-.82-2.2.58-3.29.9c.24.81.47,1.63.71,2.44C268.07,249,269.14,248.66,270.22,248.38Z" transform="translate(-212.03 -234.75)"/><path class="cls-1" d="M286.4,245.32c.09.94.19,1.87.29,2.8q-4.67.48-9.27,1.37l-2.4-12.4q1.75-.34,3.51-.63c.52,3.23,1.05,6.47,1.57,9.7Q283.24,245.65,286.4,245.32Z" transform="translate(-212.03 -234.75)"/><path class="cls-1" d="M287.29,241.71c-.37-3.53,2.89-6.85,7.11-7s7.67,3,7.49,6.57-3.44,6.39-7.14,6.5S287.66,245.24,287.29,241.71Zm11.12-.47a3.84,3.84,0,0,0-7.67.2,3.84,3.84,0,0,0,7.67-.2Z" transform="translate(-212.03 -234.75)"/><path class="cls-1" d="M303.34,241.38c.14-3.54,3.82-6.37,8-5.87s7.18,4.08,6.5,7.56-4.33,5.84-8,5.42A7.25,7.25,0,0,1,303.34,241.38Zm11.08,1.12a3.84,3.84,0,0,0-7.63-.89,3.85,3.85,0,0,0,7.63.89Z" transform="translate(-212.03 -234.75)"/><path class="cls-1" d="M321.11,237.28c1.72.34,3.44.73,5.14,1.15,4.86,1.21,7.38,4.84,6.2,8.33s-5,5-9.24,3.93c-1.52-.38-3-.72-4.59-1Zm3.28,10.77c2.17.55,4.14-.38,4.72-2.32s-.68-3.81-3-4.4l-2.12-.52c-.52,2.25-1.05,4.5-1.57,6.75Z" transform="translate(-212.03 -234.75)"/><path class="cls-1" d="M271.31,390.22l-2.73,12.34c-1.15-.26-2.3-.53-3.45-.82.41-1.62.81-3.25,1.22-4.88q-2.72-.69-5.42-1.48c-.48,1.61-.95,3.22-1.43,4.83-1.14-.34-2.27-.69-3.4-1q1.95-6,3.91-12c1,.33,2.05.65,3.08,1-.46,1.53-.91,3-1.36,4.58q2.64.78,5.3,1.45c.39-1.55.77-3.1,1.16-4.64C269.23,389.75,270.27,390,271.31,390.22Z" transform="translate(-212.03 -234.75)"/><path class="cls-1" d="M276.32,394.08c-.11.64-.22,1.29-.34,1.94q3.22.56,6.46,1l-.33,2.79q-3.32-.4-6.61-1c-.12.73-.25,1.46-.38,2.19,2.46.43,4.93.78,7.4,1.07-.11.93-.22,1.86-.32,2.79q-5.55-.63-11-1.74,1.24-6.19,2.48-12.38,5,1,10,1.58l-.33,2.79Q279.81,394.69,276.32,394.08Z" transform="translate(-212.03 -234.75)"/><path class="cls-1" d="M292.69,405.64c-1-1.35-1.95-2.72-2.87-4.09l-1.68-.12c-.09,1.32-.19,2.63-.29,3.95q-1.75-.13-3.51-.3.63-6.29,1.25-12.57,3,.28,5.94.44c2.8.14,4.83,1.93,4.82,4.48a4.08,4.08,0,0,1-3,3.9q1.59,2.22,3.28,4.4Q294.69,405.72,292.69,405.64Zm-4.34-7.07c.86.07,1.72.12,2.58.17,1.15.06,2-.5,2-1.39s-.75-1.49-1.87-1.55l-2.52-.16Z" transform="translate(-212.03 -234.75)"/><path class="cls-1" d="M297.93,399.41a7.18,7.18,0,0,1,6.86-6.74c3.7-.21,7.17,2.36,7.62,5.88s-2.68,6.93-6.85,7.17S297.9,403,297.93,399.41Zm11-.5a3.81,3.81,0,0,0-7.6.44,3.81,3.81,0,0,0,7.6-.44Z" transform="translate(-212.03 -234.75)"/><path class="cls-1" d="M317.13,394.38c.1.65.21,1.3.31,1.94,2.15-.34,4.29-.73,6.43-1.19.19.92.39,1.84.58,2.75-2.18.47-4.37.87-6.57,1.22l.35,2.2c2.46-.39,4.92-.85,7.36-1.38l.6,2.75c-3.65.79-7.33,1.43-11,1.91l-1.65-12.52c3.34-.44,6.67-1,10-1.74l.6,2.75C321.79,393.57,319.46,394,317.13,394.38Z" transform="translate(-212.03 -234.75)"/><path class="cls-1" d="M326.91,400.56c.49-.83,1-1.66,1.42-2.5a7,7,0,0,0,4.83.39c1.26-.35,1.77-1,1.57-1.65s-.88-.69-2.92-.59c-3,.2-5.28,0-5.84-2.52s1-4.38,3.87-5.15a8.53,8.53,0,0,1,5.54.15q-.45,1.32-.93,2.64a6.87,6.87,0,0,0-4-.23c-1,.28-1.48.88-1.32,1.49s.88.85,2.91.7c3.07-.24,5.18-.1,5.92,2.16s-.79,4.61-4.21,5.57A9.58,9.58,0,0,1,326.91,400.56Z" transform="translate(-212.03 -234.75)"/><path class="cls-2" d="M339.88,251.72a80.62,80.62,0,0,1,0,137.33" transform="translate(-212.03 -234.75)"/><path class="cls-2" d="M254.17,388.29a80.65,80.65,0,0,1,0-135.81" transform="translate(-212.03 -234.75)"/><path class="cls-3" d="M297.31,249.66a70.58,70.58,0,0,0-15.53,139.43l-2.94-.94a7.39,7.39,0,0,0-2.62-5.18q-4.91-4-9.9-7.8c-2.74-2.1-5.56-4.1-8.32-6.17a18.11,18.11,0,0,1-5.65-7.14,67.69,67.69,0,0,0-5-8.5,44.76,44.76,0,0,1-3.59-6.73c-1.46-3.36-3.21-6.59-4.82-9.89-.63-1.31-1.23-2.65-1.81-4-.37-.84,0-1.36.85-1.38a6.71,6.71,0,0,1,2.5.28,8.23,8.23,0,0,1,2.47,1.53c3.58,3.21,6,7.27,8.09,11.56a16.48,16.48,0,0,0-2.25.75c-1.66.81-2.13,2.08-1.05,3.58,1.34,1.83,3,3.46,4.46,5.18l.12-.12c-.47-.53-.92-1.08-1.39-1.61-.65-.73-1.36-1.41-2-2.18-.78-1-1.78-2.09-1-3.42a3.22,3.22,0,0,1,3.69-1.32,15.84,15.84,0,0,1,5.16,2.05,33.74,33.74,0,0,1,5.21,4.43,24.5,24.5,0,0,0,9.18,5.73c5.66,2,11.27,4.16,16.21,7.66a36.26,36.26,0,0,1,4.49,3.91c2,2,2.57,4.79,3.19,7.45a95.58,95.58,0,0,1,2.05,14h.53a95.56,95.56,0,0,1,2-14c.63-2.66,1.17-5.41,3.19-7.45a36.26,36.26,0,0,1,4.49-3.91c4.94-3.5,10.55-5.63,16.21-7.66a24.5,24.5,0,0,0,9.18-5.73,33.74,33.74,0,0,1,5.21-4.43,15.84,15.84,0,0,1,5.16-2.05,3.22,3.22,0,0,1,3.69,1.32c.74,1.33-.27,2.42-1.05,3.42-.6.77-1.31,1.45-2,2.18-.47.53-.92,1.08-1.38,1.61l.12.12c1.49-1.72,3.11-3.35,4.45-5.18,1.08-1.5.61-2.77-1.05-3.58a16.48,16.48,0,0,0-2.25-.75c2.13-4.29,4.51-8.35,8.1-11.56a8.06,8.06,0,0,1,2.46-1.53,6.74,6.74,0,0,1,2.5-.28c.86,0,1.23.54.86,1.38-.59,1.33-1.19,2.67-1.82,4-1.61,3.3-3.36,6.53-4.82,9.89a44.76,44.76,0,0,1-3.59,6.73,68.91,68.91,0,0,0-5.05,8.5,18,18,0,0,1-5.65,7.14c-2.76,2.07-5.58,4.07-8.32,6.17q-5,3.84-9.9,7.8a7.34,7.34,0,0,0-2.61,5.18l-3,.94a70.58,70.58,0,0,0-15.53-139.43ZM338,264.56a67.17,67.17,0,0,1,7,5.82V277c-1.45-.68-2.93-1.33-4.47-1.94v3.82q2.1.45,4.08,1v6.79c-1.32.28-2.68.56-4.08.82v4.5c1.54-.6,3-1.25,4.47-1.93v6.6a68.55,68.55,0,0,1-7,5.83Zm-8.08-5c.73,9.73,1.46,19,2.18,27.83.72-8.94,1.43-17.41,2.13-25.35,1,.63,2,1.28,3,2-1.17,12.18-2.36,26.05-3.58,41.37-1,.61-2,1.2-3.05,1.76-1.25-15.07-2.51-31.54-3.79-49.14Q328.36,258.72,329.92,259.54Zm-39.8-7.73q1.22,18.42,2.44,37.12,1.23-18.65,2.44-37.42c1.15,0,2.31,0,3.46,0-1.39,21.31-2.78,42.72-4.17,64-1.16-.05-2.31-.12-3.46-.22-1.39-21.29-2.77-42.38-4.15-63C287.82,252.07,289,251.93,290.12,251.81Zm-35,13.55a65.7,65.7,0,0,1,7.5-4.91v11.61c-1.68.47-3.33,1-4.93,1.52v4.48c1.46-.27,2.95-.53,4.48-.77v11.48c-1.53-.2-3-.42-4.48-.65v5.3c1.6.54,3.25,1.05,4.93,1.52v11.61a68.51,68.51,0,0,1-7.5-4.91Zm-11.25,25.52a91.43,91.43,0,0,0-2-12.19c.72-1,1.46-1.9,2.23-2.81q.45,3.86.92,9c.5-3.26,1-7.18,1.51-11.72.8-.86,1.62-1.69,2.45-2.5.53,4.45,1.06,9.5,1.6,15.11q.53-8.24,1-17.53c.87-.75,1.76-1.48,2.66-2.18-.82,12.28-1.63,23.31-2.42,33-.82-.71-1.62-1.43-2.41-2.18-.57-5.67-1.14-10.73-1.7-15.13q-.85,6.87-1.67,11.71C245.28,292.57,244.55,291.74,243.84,290.88ZM252.09,345a.78.78,0,0,1-.54-.31c-.71-1.58-1.85-2.94-2.08-4.79-.67-5.19-1.43-10.38-3.4-15.3a1,1,0,0,1,.41-.9,3.57,3.57,0,0,1,4.54,1,13.13,13.13,0,0,1,2,3.83c1.16,3.83,2,7.74,3.18,11.58.72,2.43,1.69,4.79,2.56,7.18.14.38.28.76.43,1.13A14.21,14.21,0,0,0,252.09,345ZM264.77,354c-.91-.86-1.79-1.76-2.75-2.57-1.47-1.26-2.12-2.94-2.92-4.65-2.23-4.78-3.2-9.88-4.4-14.93-.35-1.45-.95-2.84-1.44-4.26-.42-1.24-.27-1.46,1.06-1.37A4.34,4.34,0,0,1,258,328.9a33.17,33.17,0,0,1,1.61,4.75c1.13,3.72,2.12,7.48,3.36,11.16a33.43,33.43,0,0,1,2.14,9Zm5.83,3c-1.55-.77-3.13-1.5-4.64-2.35-.28-.16-.33-.79-.43-1.21-.68-2.8-1.16-5.66-2.09-8.37a19.63,19.63,0,0,1-1.08-6.13c0-.34-.05-.68,0-1s0-1.33.17-1.36a2.75,2.75,0,0,1,1.91.07,3.92,3.92,0,0,1,1.53,2,41.06,41.06,0,0,1,1.1,5.6,28.09,28.09,0,0,0,2.57,9.25,33.27,33.27,0,0,1,1.31,3.27Zm1.23-45.19c-1.81-.72-3.48-4.5-4.72-10.46.51-2.94,1-6,1.54-9.09,1,4.23,2.1,6.75,3.28,7,.78.18,1.19-1.17,1.19-3.56,0-2.61-.36-3.08-1.74-4.93-2.17-2.89-3.8-5.82-3.8-16.19,0-9.88,1.53-17.11,3.9-18.12,1.73-.67,3.11,1.4,4.23,6.14q-.72,5.78-1.43,11.38c-.95-3.6-2-5.19-2.87-5-.69.14-1,1.67-1,3.65,0,2.68.35,3.45,1.78,5,2.33,2.47,3.83,6,3.83,16.8C276,306.41,274.34,312.89,271.83,311.83Zm12.72,2.59c-.18-2.8-.36-5.58-.54-8.36-1.24-.16-2.48-.36-3.71-.58q-.27,4-.54,7.91c-1.12-.28-2.24-.59-3.35-.93,1.34-18.9,2.69-38.66,4-59,1.12-.27,2.26-.52,3.39-.73,1.37,20.27,2.75,41.09,4.13,62.23C286.84,314.8,285.69,314.62,284.55,314.42Zm14.35,42.63a10,10,0,0,1-10.84-9c-.51-5.47,11.06-17.43,9-22.52-4.13-10.12,10.32,15.18,10.83,20.65A10,10,0,0,1,298.9,357.05Zm9.23-89c-1.87-.15-3.75-.25-5.64-.32v7.13c1.72,0,3.44.09,5.14.16v15.73c-1.7.06-3.42.1-5.14.13v8.43c1.89-.07,3.77-.18,5.64-.32v15.69a68.63,68.63,0,0,1-8.71.82v-64a72.5,72.5,0,0,1,8.71.82Zm13.56,43.11a69.53,69.53,0,0,1-7.81,2.38v-60c1,.24,2,.5,3,.79V298c1.63-.24,3.24-.5,4.83-.79Zm1.29-.5V256.35c1,.38,1.92.78,2.86,1.2v51.89C324.9,309.87,323.94,310.27,323,310.64Zm5.68,44c-1.51.85-3.08,1.58-4.64,2.35l-.32-.28a33.27,33.27,0,0,1,1.31-3.27,27.85,27.85,0,0,0,2.57-9.25,41.06,41.06,0,0,1,1.1-5.6,3.92,3.92,0,0,1,1.53-2,2.75,2.75,0,0,1,1.91-.07c.15,0,.14.88.17,1.36s0,.67,0,1a19.61,19.61,0,0,1-1.07,6.13c-.94,2.71-1.41,5.57-2.1,8.37C329,353.88,328.94,354.51,328.66,354.67Zm3.94-3.2c-1,.81-1.84,1.71-2.75,2.57l-.33-.21a33.43,33.43,0,0,1,2.14-9c1.24-3.68,2.24-7.44,3.36-11.16a33.17,33.17,0,0,1,1.61-4.75,4.35,4.35,0,0,1,3.67-2.64c1.33-.09,1.48.13,1.06,1.37a44.38,44.38,0,0,0-1.43,4.26c-1.21,5.05-2.18,10.15-4.41,14.93C334.72,348.53,334.07,350.21,332.6,351.47Zm16-26.91c-2,4.92-2.74,10.11-3.4,15.3-.24,1.85-1.38,3.21-2.09,4.79a.78.78,0,0,1-.54.31,14.21,14.21,0,0,0-7.15,3.45c.15-.37.3-.75.43-1.13.87-2.39,1.85-4.75,2.57-7.18,1.13-3.84,2-7.75,3.17-11.58a13.13,13.13,0,0,1,2.05-3.83,3.58,3.58,0,0,1,4.55-1A1.06,1.06,0,0,1,348.56,324.56Zm.75-32.19c-1.37,1.67-2.74,2.05-3.78-.1q.64-2.81,1.28-5.13c.81,1.54,1.68,1.76,2.58,1.16a1.93,1.93,0,0,0,.89-1.63c0-.73-.25-.67-1.31-.91-1.67-.38-3.05-1.68-3.05-6.86s1.3-6.93,3.13-4.59a24.52,24.52,0,0,1,3.11,5.31,5.84,5.84,0,0,0-1,1.54,9,9,0,0,0-2.15-2.73c-.53-.35-.79,0-.79.79,0,1,.28,1.46,1.37,2.29,1.77,1.36,2.78,2,2.79,3.75S351.23,289.87,349.31,292.37Z" transform="translate(-212.03 -234.75)"/><path class="cls-3" d="M281.15,293l2,.14q-.5-7.49-1-14.87Q281.65,285.74,281.15,293Z" transform="translate(-212.03 -234.75)"/></svg>